<?xml version="1.0" encoding="UTF-8" standalone="no"?>
<svg
   xmlns:dc="http://purl.org/dc/elements/1.1/"
   xmlns:cc="http://creativecommons.org/ns#"
   xmlns:rdf="http://www.w3.org/1999/02/22-rdf-syntax-ns#"
   xmlns:svg="http://www.w3.org/2000/svg"
   xmlns="http://www.w3.org/2000/svg"
   xmlns:sodipodi="http://sodipodi.sourceforge.net/DTD/sodipodi-0.dtd"
   xmlns:inkscape="http://www.inkscape.org/namespaces/inkscape"
   id="457bf273-24a3-4fd8-a857-e9b918267d6a"
   data-name="Layer 1"
   width="698"
   height="698"
   viewBox="0 0 698 698"
   version="1.1"
   sodipodi:docname="favicon.svg"
   inkscape:version="0.92.4 (5da689c313, 2019-01-14)">
  <metadata
     id="metadata44">
    <rdf:RDF>
      <cc:Work
         rdf:about="">
        <dc:format>image/svg+xml</dc:format>
        <dc:type
           rdf:resource="http://purl.org/dc/dcmitype/StillImage" />
        <dc:title>profile pic</dc:title>
      </cc:Work>
    </rdf:RDF>
  </metadata>
  <sodipodi:namedview
     pagecolor="#ffffff"
     bordercolor="#666666"
     borderopacity="1"
     objecttolerance="10"
     gridtolerance="10"
     guidetolerance="10"
     inkscape:pageopacity="0"
     inkscape:pageshadow="2"
     inkscape:window-width="1048"
     inkscape:window-height="656"
     id="namedview42"
     showgrid="false"
     inkscape:zoom="0.55"
     inkscape:cx="312.77332"
     inkscape:cy="426"
     inkscape:window-x="0"
     inkscape:window-y="0"
     inkscape:window-maximized="0"
     inkscape:current-layer="457bf273-24a3-4fd8-a857-e9b918267d6a" />
  <defs
     id="defs9">
    <linearGradient
       id="b247946c-c62f-4d08-994a-4c3d64e1e98f"
       x1="349"
       y1="698"
       x2="349"
       gradientUnits="userSpaceOnUse">
      <stop
         offset="0"
         stop-color="gray"
         stop-opacity="0.25"
         id="stop2" />
      <stop
         offset="0.54"
         stop-color="gray"
         stop-opacity="0.12"
         id="stop4" />
      <stop
         offset="1"
         stop-color="gray"
         stop-opacity="0.1"
         id="stop6" />
    </linearGradient>
  </defs>
  <title
     id="title11">profile pic</title>
  <g
     opacity="0.5"
     id="g15">
    <circle
       cx="349"
       cy="349"
       r="349"
       fill="url(#b247946c-c62f-4d08-994a-4c3d64e1e98f)"
       id="circle13" />
  </g>
  <circle
     cx="349.68"
     cy="346.77"
     r="341.64"
     id="circle17"
     fill="#f5f5f5" />
  <path
     d="M601,790.76a340,340,0,0,0,187.79-56.2c-12.59-68.8-60.5-72.72-60.5-72.72H464.09s-45.21,3.71-59.33,67A340.07,340.07,0,0,0,601,790.76Z"
     transform="translate(-251 -101)"
     fill="#4285f4"
     id="path19" />
  <circle
     cx="346.37"
     cy="339.57"
     r="164.9"
     fill="#333"
     id="circle21"
     style="fill:#312018;fill-opacity:1" />
  <path
     d="M293.15,476.92H398.81a0,0,0,0,1,0,0v84.53A52.83,52.83,0,0,1,346,614.28h0a52.83,52.83,0,0,1-52.83-52.83V476.92a0,0,0,0,1,0,0Z"
     opacity="0.1"
     id="path23" />
  <path
     d="M296.5,473h99a3.35,3.35,0,0,1,3.35,3.35v81.18A52.83,52.83,0,0,1,346,610.37h0a52.83,52.83,0,0,1-52.83-52.83V476.35A3.35,3.35,0,0,1,296.5,473Z"
     fill="#fdb797"
     id="path25" />
  <path
     d="M544.34,617.82a152.07,152.07,0,0,0,105.66.29v-13H544.34Z"
     transform="translate(-251 -101)"
     opacity="0.1"
     id="path27" />
  <circle
     cx="346.37"
     cy="372.44"
     r="151.45"
     fill="#fdb797"
     id="circle29" />
  <path
     d="m 237.85258,234.87531 a 85.347577,69.19674 0 0 1 21.15886,-27.89541 c 29.06051,-23.29231 76.70454,-28.20386 101.14112,-54.76263 5.85308,7.37129 1.3267,18.70503 -8.77961,21.86867 23.4123,-0.12654 50.5413,-1.78746 63.779,-17.40002 a 43.79075,35.503962 0 0 1 -7.38463,37.48914 c 20.74915,0.79091 42.92255,12.18002 44.22973,28.98686 0.89747,11.19929 -7.8041,21.79749 -19.11028,28.21968 -11.30619,6.42219 -25.08043,9.37229 -38.59127,11.78457 -39.44972,7.06282 -182.18669,36.61914 -156.44292,-28.29086 z"
     id="path35"
     inkscape:connector-curvature="0"
     style="fill:#312018;stroke-width:0.87837505;fill-opacity:1" />
  <ellipse
     cx="194.86"
     cy="372.3"
     rx="14.09"
     ry="26.42"
     fill="#fdb797"
     id="ellipse37" />
  <ellipse
     cx="497.8"
     cy="372.3"
     rx="14.09"
     ry="26.42"
     fill="#fdb797"
     id="ellipse39" />
</svg>
