<?xml version="1.0" encoding="UTF-8" standalone="no"?>
<svg
   xmlns:dc="http://purl.org/dc/elements/1.1/"
   xmlns:cc="http://creativecommons.org/ns#"
   xmlns:rdf="http://www.w3.org/1999/02/22-rdf-syntax-ns#"
   xmlns:svg="http://www.w3.org/2000/svg"
   xmlns="http://www.w3.org/2000/svg"
   xmlns:sodipodi="http://sodipodi.sourceforge.net/DTD/sodipodi-0.dtd"
   xmlns:inkscape="http://www.inkscape.org/namespaces/inkscape"
   id="457bf273-24a3-4fd8-a857-e9b918267d6a"
   data-name="Layer 1"
   width="698"
   height="698"
   viewBox="0 0 698 698"
   version="1.1"
   sodipodi:docname="favicon.svg"
   inkscape:version="0.92.4 (5da689c313, 2019-01-14)"
   inkscape:export-filename="C:\Users\Matt\Desktop\personal-site\static\favicon\favicon0.png"
   inkscape:export-xdpi="124.14738"
   inkscape:export-ydpi="124.14738">
  <metadata
     id="metadata44">
    <rdf:RDF>
      <cc:Work
         rdf:about="">
        <dc:format>image/svg+xml</dc:format>
        <dc:type
           rdf:resource="http://purl.org/dc/dcmitype/StillImage" />
        <dc:title>profile pic</dc:title>
      </cc:Work>
    </rdf:RDF>
  </metadata>
  <sodipodi:namedview
     pagecolor="#ffffff"
     bordercolor="#666666"
     borderopacity="1"
     objecttolerance="10"
     gridtolerance="10"
     guidetolerance="10"
     inkscape:pageopacity="0"
     inkscape:pageshadow="2"
     inkscape:window-width="1048"
     inkscape:window-height="656"
     id="namedview42"
     showgrid="false"
     inkscape:zoom="0.55"
     inkscape:cx="251.98038"
     inkscape:cy="302.49604"
     inkscape:window-x="320"
     inkscape:window-y="206"
     inkscape:window-maximized="0"
     inkscape:current-layer="457bf273-24a3-4fd8-a857-e9b918267d6a" />
  <defs
     id="defs9">
    <linearGradient
       id="b247946c-c62f-4d08-994a-4c3d64e1e98f"
       x1="349"
       y1="698"
       x2="349"
       gradientUnits="userSpaceOnUse">
      <stop
         offset="0"
         stop-color="gray"
         stop-opacity="0.25"
         id="stop2" />
      <stop
         offset="0.54"
         stop-color="gray"
         stop-opacity="0.12"
         id="stop4" />
      <stop
         offset="1"
         stop-color="gray"
         stop-opacity="0.1"
         id="stop6" />
    </linearGradient>
  </defs>
  <title
     id="title11">profile pic</title>
  <g
     id="g15"
     opacity="0.5"
     style="opacity:0">
    <circle
       cx="349"
       cy="349"
       r="349"
       id="circle13"
       fill="url(#b247946c-c62f-4d08-994a-4c3d64e1e98f)"
       style="" />
  </g>
  <path
     id="circle17"
     sodipodi:type="arc"
     sodipodi:cx="349.67999"
     sodipodi:cy="346.76999"
     sodipodi:rx="341.64001"
     sodipodi:ry="341.64001"
     sodipodi:start="0"
     sodipodi:end="0.89943515"
     d="M 691.32001,346.76999 A 341.64001,341.64001 0 0 1 562.19796,614.26581 L 349.67999,346.76999 Z"
     style="fill:#f5f5f5;opacity:0" />
  <path
     d="M 357.82387,682.48717 A 457.50976,418.2009 0 0 0 610.51728,613.36102 C 593.57596,528.73683 529.10745,523.91523 529.10745,523.91523 H 173.59546 c 0,0 -60.83535,4.5633 -79.835455,82.41018 a 457.60395,418.287 0 0 0 264.063865,76.16176 z"
     id="path19"
     inkscape:connector-curvature="0"
     style="fill:#4285f4;stroke-width:1.28651166" />
  <ellipse
     cx="352.93927"
     cy="251.75258"
     id="circle21"
     style="fill:#312018;fill-opacity:1;stroke-width:1.28651166"
     rx="221.89223"
     ry="202.82742" />
  <path
     d="m 281.32554,420.6934 h 142.17789 v 103.97212 a 71.088943,64.98104 0 0 1 -71.06202,64.98104 v 0 A 71.088943,64.98104 0 0 1 281.35247,524.66552 V 420.6934 Z"
     id="path23"
     inkscape:connector-curvature="0"
     style="opacity:0.1;stroke-width:1.28651166" />
  <path
     d="m 285.83337,415.87179 h 133.21607 a 4.5078167,4.1205088 0 0 1 4.50782,4.12051 v 99.85162 a 71.088943,64.98104 0 0 1 -71.11585,64.99334 v 0 A 71.088943,64.98104 0 0 1 281.35247,519.85621 V 419.9923 a 4.5078167,4.1205088 0 0 1 4.4809,-4.12051 z"
     id="path25"
     inkscape:connector-curvature="0"
     style="fill:#fdb797;stroke-width:1.28651166" />
  <path
     d="m 281.58121,469.77051 a 204.62797,187.04651 0 0 0 142.17789,0.3567 V 454.13718 H 281.58121 Z"
     id="path27"
     inkscape:connector-curvature="0"
     style="opacity:0.1;stroke-width:1.28651166" />
  <ellipse
     cx="352.93927"
     cy="292.18277"
     id="circle29"
     rx="203.79369"
     ry="186.28389"
     style="fill:#fdb797;stroke-width:1.28651166" />
  <path
     d="m 206.8648,121.76942 a 113.41686,87.144758 0 0 1 28.11761,-35.130821 c 38.61799,-29.3338 101.93129,-35.519294 134.40463,-68.966784 7.77805,9.283231 1.76302,23.556678 -11.66707,27.540891 31.11218,-0.159361 67.16344,-2.251085 84.75477,-21.913178 a 58.192742,44.71286 0 0 1 -9.8133,47.212953 c 27.57317,0.99605 57.03901,15.339234 58.77609,36.505369 1.19264,14.10413 -10.37073,27.45125 -25.39531,35.53921 -15.02459,8.08795 -33.32893,11.80325 -51.28325,14.84121 -52.42402,8.89475 -242.10462,46.11729 -207.89417,-35.62885 z"
     id="path35"
     inkscape:connector-curvature="0"
     style="fill:#312018;fill-opacity:1;stroke-width:1.13632095" />
  <ellipse
     cx="149.06487"
     cy="292.0105"
     rx="18.959743"
     ry="32.49667"
     id="ellipse37"
     style="fill:#fdb797;stroke-width:1.28651166" />
  <ellipse
     cx="556.70599"
     cy="292.0105"
     rx="18.959743"
     ry="32.49667"
     id="ellipse39"
     style="fill:#fdb797;stroke-width:1.28651166" />
</svg>
