<?xml version="1.0" encoding="UTF-8" standalone="no"?>
<svg
   xmlns:dc="http://purl.org/dc/elements/1.1/"
   xmlns:cc="http://creativecommons.org/ns#"
   xmlns:rdf="http://www.w3.org/1999/02/22-rdf-syntax-ns#"
   xmlns:svg="http://www.w3.org/2000/svg"
   xmlns="http://www.w3.org/2000/svg"
   xmlns:sodipodi="http://sodipodi.sourceforge.net/DTD/sodipodi-0.dtd"
   xmlns:inkscape="http://www.inkscape.org/namespaces/inkscape"
   id="a594ac37-6d44-4297-8862-1cbd9c01c0b7"
   data-name="Layer 1"
   width="1126.19355"
   height="855"
   viewBox="0 0 1126.19355 855"
   version="1.1"
   sodipodi:docname="code-review.svg"
   inkscape:version="0.92.4 (5da689c313, 2019-01-14)">
  <metadata
     id="metadata4117">
    <rdf:RDF>
      <cc:Work
         rdf:about="">
        <dc:format>image/svg+xml</dc:format>
        <dc:type
           rdf:resource="http://purl.org/dc/dcmitype/StillImage" />
      </cc:Work>
    </rdf:RDF>
  </metadata>
  <defs
     id="defs4115" />
  <sodipodi:namedview
     pagecolor="#ffffff"
     bordercolor="#666666"
     borderopacity="1"
     objecttolerance="10"
     gridtolerance="10"
     guidetolerance="10"
     inkscape:pageopacity="0"
     inkscape:pageshadow="2"
     inkscape:window-width="1189"
     inkscape:window-height="1008"
     id="namedview4113"
     showgrid="false"
     inkscape:zoom="0.7013176"
     inkscape:cx="520.67393"
     inkscape:cy="416.54531"
     inkscape:window-x="234"
     inkscape:window-y="0"
     inkscape:window-maximized="0"
     inkscape:current-layer="a594ac37-6d44-4297-8862-1cbd9c01c0b7" />
  <title
     id="title4012">code review</title>
  <path
     d="M581.7675,778.43794C339.36866,759.99137,50.29677,572.17166,65.01385,378.78054S359.70017,5.35846,602.099,23.805,984.03089,403.667,969.31381,597.05809,824.16633,796.88451,581.7675,778.43794Z"
     transform="translate(-36.90323 -22.5)"
     fill="#f2f2f2"
     id="path4014" />
  <ellipse
     cx="565.19355"
     cy="756"
     rx="506"
     ry="31"
     fill="#3f3d56"
     id="ellipse4016" />
  <ellipse
     cx="565.19355"
     cy="755.5"
     rx="431"
     ry="20.5"
     opacity="0.1"
     id="ellipse4018" />
  <rect
     x="196.19355"
     y="162"
     width="752"
     height="590"
     fill="#3f3d56"
     id="rect4024" />
  <path
     d="M600.54135,265.12914H415.02363a2.25143,2.25143,0,1,1,0-4.50285H600.54135a2.25143,2.25143,0,0,1,0,4.50285Z"
     transform="translate(-36.90323 -22.5)"
     fill="#f2f2f2"
     id="path4026" />
  <path
     d="M803.6202,289.89486H511.83506a2.25143,2.25143,0,0,1,0-4.50286H803.6202a2.25143,2.25143,0,1,1,0,4.50286Z"
     transform="translate(-36.90323 -22.5)"
     fill="#f2f2f2"
     id="path4028" />
  <path
     d="M601.44192,314.66057H415.9242a2.25143,2.25143,0,1,1,0-4.50286H601.44192a2.25143,2.25143,0,1,1,0,4.50286Z"
     transform="translate(-36.90323 -22.5)"
     fill="#f2f2f2"
     id="path4030" />
  <path
     d="M803.6202,315.11086H618.10249a2.25143,2.25143,0,0,1,0-4.50286H803.6202a2.25143,2.25143,0,1,1,0,4.50286Z"
     transform="translate(-36.90323 -22.5)"
     fill="#f2f2f2"
     id="path4032" />
  <path
     d="M601.8922,339.42629H416.37449a2.25143,2.25143,0,0,1,0-4.50286H601.8922a2.25143,2.25143,0,1,1,0,4.50286Z"
     transform="translate(-36.90323 -22.5)"
     fill="#f2f2f2"
     id="path4034" />
  <path
     d="M602.34249,364.192H416.82477a2.25143,2.25143,0,0,1,0-4.50286H602.34249a2.25143,2.25143,0,1,1,0,4.50286Z"
     transform="translate(-36.90323 -22.5)"
     fill="#f2f2f2"
     id="path4036" />
  <path
     d="M686.54592,265.57943H633.4122a2.25143,2.25143,0,0,1,0-4.50286h53.13372a2.25143,2.25143,0,1,1,0,4.50286Z"
     transform="translate(-36.90323 -22.5)"
     fill="#f2f2f2"
     id="path4038" />
  <path
     d="M686.54592,339.42629H633.4122a2.25143,2.25143,0,0,1,0-4.50286h53.13372a2.25143,2.25143,0,1,1,0,4.50286Z"
     transform="translate(-36.90323 -22.5)"
     fill="#f2f2f2"
     id="path4040" />
  <path
     d="M686.54592,363.74171H633.4122a2.25143,2.25143,0,1,1,0-4.50285h53.13372a2.25143,2.25143,0,1,1,0,4.50285Z"
     transform="translate(-36.90323 -22.5)"
     fill="#f2f2f2"
     id="path4042" />
  <path
     d="M775.70249,363.74171H722.56877a2.25143,2.25143,0,0,1,0-4.50285h53.13372a2.25143,2.25143,0,1,1,0,4.50285Z"
     transform="translate(-36.90323 -22.5)"
     fill="#f2f2f2"
     id="path4044" />
  <path
     d="M467.70706,289.89486H414.57335a2.25143,2.25143,0,0,1,0-4.50286h53.13371a2.25143,2.25143,0,0,1,0,4.50286Z"
     transform="translate(-36.90323 -22.5)"
     fill="#f2f2f2"
     id="path4046" />
  <path
     d="M600.76649,629.86057H415.24877a2.25143,2.25143,0,0,1,0-4.50286H600.76649a2.25143,2.25143,0,0,1,0,4.50286Z"
     transform="translate(-36.90323 -22.5)"
     fill="#f2f2f2"
     id="path4048" />
  <path
     d="M599.86592,679.392H414.3482a2.25143,2.25143,0,1,1,0-4.50286H599.86592a2.25143,2.25143,0,0,1,0,4.50286Z"
     transform="translate(-36.90323 -22.5)"
     fill="#f2f2f2"
     id="path4050" />
  <path
     d="M600.3162,704.15771H414.79849a2.25143,2.25143,0,1,1,0-4.50285H600.3162a2.25143,2.25143,0,1,1,0,4.50285Z"
     transform="translate(-36.90323 -22.5)"
     fill="#f2f2f2"
     id="path4052" />
  <path
     d="M679.56649,679.84229H626.43277a2.25143,2.25143,0,0,1,0-4.50286h53.13372a2.25143,2.25143,0,0,1,0,4.50286Z"
     transform="translate(-36.90323 -22.5)"
     fill="#f2f2f2"
     id="path4054" />
  <path
     d="M679.56649,704.15771H626.43277a2.25142,2.25142,0,0,1,0-4.50285h53.13372a2.25142,2.25142,0,1,1,0,4.50285Z"
     transform="translate(-36.90323 -22.5)"
     fill="#f2f2f2"
     id="path4056" />
  <path
     d="M768.72306,679.84229H715.58935a2.25143,2.25143,0,1,1,0-4.50286h53.13371a2.25143,2.25143,0,0,1,0,4.50286Z"
     transform="translate(-36.90323 -22.5)"
     fill="#f2f2f2"
     id="path4058" />
  <path
     d="M803.84535,654.62629H512.0602a2.25143,2.25143,0,0,1,0-4.50286H803.84535a2.25143,2.25143,0,0,1,0,4.50286Z"
     transform="translate(-36.90323 -22.5)"
     fill="#f2f2f2"
     id="path4060" />
  <path
     d="M467.9322,654.62629H414.79849a2.25143,2.25143,0,0,1,0-4.50286H467.9322a2.25143,2.25143,0,0,1,0,4.50286Z"
     transform="translate(-36.90323 -22.5)"
     fill="#f2f2f2"
     id="path4062" />
  <path
     d="M803.84535,729.37371H512.0602a2.25143,2.25143,0,1,1,0-4.50285H803.84535a2.25142,2.25142,0,0,1,0,4.50285Z"
     transform="translate(-36.90323 -22.5)"
     fill="#f2f2f2"
     id="path4064" />
  <path
     d="M467.9322,729.37371H414.79849a2.25143,2.25143,0,1,1,0-4.50285H467.9322a2.25143,2.25143,0,1,1,0,4.50285Z"
     transform="translate(-36.90323 -22.5)"
     fill="#f2f2f2"
     id="path4066" />
  <polygon
     points="519.06 401.13 447.014 472.275 519.06 543.42 535.27 527.21 480.786 472.725 535.72 417.79 519.06 401.13"
     fill="#4285f4"
     id="polygon4068" />
  <polygon
     points="625.327 401.13 697.373 472.275 625.327 543.42 609.117 527.21 663.602 472.725 608.667 417.79 625.327 401.13"
     fill="#4285f4"
     id="polygon4070" />
  <circle
     cx="216.19355"
     cy="177"
     r="9"
     fill="#4285f4"
     id="circle4072" />
  <circle
     cx="240.19355"
     cy="177"
     r="9"
     fill="#4285f4"
     id="circle4074" />
  <circle
     cx="264.19355"
     cy="177"
     r="9"
     fill="#4285f4"
     id="circle4076" />
  <rect
     x="196.19355"
     y="192"
     width="752"
     height="3"
     opacity="0.1"
     id="rect4078" />
  <path
     d="M1163.09677,629.95357c0,63.77108-37.91089,86.03756-84.67635,86.03756s-84.67635-22.26648-84.67635-86.03756,84.67635-144.898,84.67635-144.898S1163.09677,566.18249,1163.09677,629.95357Z"
     transform="translate(-36.90323 -22.5)"
     fill="#669bf4"
     id="path4080" />
  <polygon
     points="1038.433 683.736 1039.3 630.365 1075.391 564.338 1039.436 621.993 1039.826 597.995 1064.699 550.226 1039.929 591.645 1039.929 591.645 1040.63 548.484 1067.265 510.453 1040.74 541.697 1041.178 462.556 1038.425 567.325 1038.651 563.003 1011.571 521.552 1038.217 571.3 1035.694 619.503 1035.619 618.223 1004.4 574.602 1035.524 622.743 1035.209 628.771 1035.152 628.862 1035.178 629.357 1028.776 751.653 1037.329 751.653 1038.355 688.485 1069.404 640.461 1038.433 683.736"
     fill="#3f3d56"
     id="polygon4082" />
  <circle
     style="fill:#2f2e41"
     cx="130.26299"
     cy="647.23883"
     r="79"
     id="circle5402" />
  <rect
     style="fill:#2f2e41"
     x="94.262985"
     y="709.23883"
     width="24"
     height="43"
     id="rect5404" />
  <rect
     style="fill:#2f2e41"
     x="142.26299"
     y="709.23883"
     width="24"
     height="43"
     id="rect5406" />
  <ellipse
     style="fill:#2f2e41"
     cx="114.26299"
     cy="752.73883"
     rx="20"
     ry="7.5"
     id="ellipse5408" />
  <ellipse
     style="fill:#2f2e41"
     cx="162.26295"
     cy="751.73883"
     rx="20"
     ry="7.5"
     id="ellipse5410" />
  <circle
     style="fill:#ffffff"
     cx="132.26299"
     cy="627.23883"
     r="27"
     id="circle5412" />
  <circle
     style="fill:#3f3d56"
     cx="132.26299"
     cy="627.23883"
     r="9"
     id="circle5414" />
  <path
     inkscape:connector-curvature="0"
     style="fill:#4285f4"
     d="m 53.630316,573.77112 c -6.37889,-28.56758 14.01185,-57.43392 45.544004,-64.47477 31.53215,-7.04085 62.2651,10.41 68.644,38.9776 6.3789,28.5676 -14.51861,39.10379 -46.05075,46.14464 -31.53214,7.04085 -61.758374,7.92011 -68.137254,-20.64747 z"
     id="path5416" />
  <ellipse
     style="fill:#2f2e41"
     cx="-60.602673"
     cy="648.5531"
     rx="39.5"
     ry="12.40027"
     transform="rotate(-23.17116)"
     id="ellipse5418" />
  <ellipse
     style="fill:#2f2e41"
     cx="-217.51843"
     cy="639.04285"
     rx="39.5"
     ry="12.40027"
     transform="rotate(-23.17116)"
     id="ellipse5420" />
  <path
     inkscape:connector-curvature="0"
     style="fill:#ffffff"
     d="m 176.26298,670.23884 c 0,7.732 -19.90861,23 -42,23 -22.09139,0 -43,-14.268 -43,-22 0,-7.732 20.90861,-6 43,-6 22.09139,0 42,-2.732 42,5 z"
     id="path5422" />
</svg>
